+-----------------------------------------------+
|Shes.Out.Of.My.League.2010.BRRip.XviD.FEEL-FREE|
+-----------------------------------------------+
...............................................
Genre:Comedy | Romance
Language:ENGLISH
IMDb:http://www.imdb.com/title/tt0815236/
Source:BluRay.x264-MACHD Thanks
Subtitles: ROMANA
Encoder: Tony2
................................................
General
Complete name : Shes.Out.Of.My.League.2010.BRRip.XviD.FEEL-FREE
Format : AVI
Format/Info : Audio Video Interleave
File size : 1.20 GiB
Duration : 1h 44mn
Overall bit rate : 1 641 Kbps
.................................................
Video
ID : 0
Format : MPEG-4 Visual
Format profile : Simple@L3
Format settings, BVOP : Yes
Format settings, QPel : No
Format settings, GMC : No warppoints
Format settings, Matrix : Default (H.263)
Codec ID : XVID
Codec ID/Hint : XviD
Duration : 1h 44mn
Bit rate : 1 501 Kbps
Width : 1 280 pixels
Height : 544 pixels
Display aspect ratio : 2.35:1
Frame rate : 23.976 fps
Resolution : 24 bits
Scan type : Progressive
Bits/(Pixel*Frame) : 0.090
Stream size : 1.10 GiB (91%)
..................................................
Audio
ID : 1
Format : MPEG Audio
Format version : Version 1
Format profile : Layer 3
Format settings, Mode : Joint stereo / MS Stereo
Codec ID : 55
Codec ID/Hint : MP3
Duration : 1h 44mn
Bit rate mode : Constant
Bit rate : 128 Kbps
Channel(s) : 2 channels
Sampling rate : 44.1 KHz
Resolution : 16 bits
Stream size : 95.7 MiB (8%)
Alignment : Aligned on interleaves
Interleave, duration : 26 ms (0.63 video frame)
...................................................
Plot:
An average Joe meets the perfect woman, but his lack of confidence and the influence of his friends and family begin to pick away at the relationship.
...................................................